/* XPM */
static char *cec87984426b480cfb8efffacbf52ec6[] = {
/* columns rows colors chars-per-pixel */
"16 16 18 1 ",
"  c black",
". c #181818",
"X c #191919",
"o c #1D1D1D",
"O c gray13",
"+ c #4C4C4C",
"@ c #505050",
"# c #555555",
"$ c #565656",
"% c gray34",
"& c #585858",
"* c #7E7E7E",
"= c #C5C5C5",
"- c gray79",
"; c gray90",
": c #E6E6E6",
"> c gray100",
", c None",
/* pixels */
",,,,,>=  ->,,,,,",
",,,>        >,,,",
",,>  ;;;;;;  >,,",
",>        X   >,",
",     >  &     ,",
">     >  %     >",
"%     >  %     *",
"      >  +      ",
"      >  %.     ",
"O     >  &X    +",
">     >  %.    >",
",     >  &X    ,",
",>        o   >,",
",,>  >>>>>>  >,,",
",,,>        >,,,",
",,,,,>    >,,,,,"
};
