/* XPM */
static char *bd96c5d1375c4083bcdaa732cb0d8b85[] = {
/* columns rows colors chars-per-pixel */
"32 32 17 1 ",
"  c black",
". c gray77",
"X c #C5C5C5",
"o c gray83",
"O c gray84",
"+ c gray91",
"@ c #EAEAEA",
"# c #ECECEC",
"$ c #F3F3F3",
"% c #F4F4F4",
"& c gray96",
"* c gray97",
"= c #F9F9F9",
"- c gray99",
"; c #FDFDFD",
": c gray100",
"> c None",
/* pixels */
">>>>>>>>>>>>>::::::>>>>>>>>>>>>>",
">>>>>>>>>>:          :>>>>>>>>>>",
">>>>>>>>:              :>>>>>>>>",
">>>>>>:                  :>>>>>>",
">>>>>:                    :>>>>>",
">>>>:     ::::::::::::     :>>>>",
">>>:      :          :      :>>>",
">>>       :          :       >>>",
">>:       :  .    :          :>>",
">:        :  .    :           :>",
">:        :  .    :           :>",
">         :  .    :            >",
":         :  .    :            :",
":         :  .    :            :",
":         :  .    :            :",
":         :  .    :            :",
":         ooo=+@@#:%%:         :",
":            .    :  :         :",
":            .    :  :         :",
":            .    :  :         :",
">            .    :  :         >",
">:           .    :  :        :>",
">:           .    :  :        :>",
">>:          .    :  :       :>>",
">>>       :          :       >>>",
">>>:      :          :      :>>>",
">>>>:     :          :     :>>>>",
">>>>>:                    :>>>>>",
">>>>>>:                  :>>>>>>",
">>>>>>>>$              %>>>>>>>>",
">>>>>>>>>::          ::>>>>>>>>>",
">>>>>>>>>>>>::::::::>>>>>>>>>>>>"
};
