/* XPM */
static char *_bcf0effb5dc40e4f77270624bef9e22[] = {
/* columns rows colors chars-per-pixel */
"64 64 80 1 ",
"  c black",
". c #010101",
"X c #020202",
"o c #040404",
"O c gray2",
"+ c #070707",
"@ c #090909",
"# c gray4",
"$ c #0B0B0B",
"% c #0C0C0C",
"& c gray5",
"* c #0E0E0E",
"= c #111111",
"- c gray8",
"; c #161616",
": c #1B1B1B",
"> c gray11",
", c #1D1D1D",
"< c #1E1E1E",
"1 c gray12",
"2 c #202020",
"3 c gray13",
"4 c #222222",
"5 c #232323",
"6 c #252525",
"7 c #282828",
"8 c gray16",
"9 c #2A2A2A",
"0 c #313131",
"q c #373737",
"w c #3F3F3F",
"e c #444444",
"r c gray27",
"t c #484848",
"y c gray31",
"u c #535353",
"i c gray34",
"p c #585858",
"a c #5A5A5A",
"s c #5B5B5B",
"d c #5D5D5D",
"f c gray37",
"g c #606060",
"h c gray38",
"j c #646464",
"k c #656565",
"l c gray42",
"z c #6F6F6F",
"x c #7E7E7E",
"c c gray50",
"v c #808080",
"b c gray51",
"n c gray52",
"m c gray58",
"M c gray59",
"N c gray70",
"B c gray73",
"V c #C1C1C1",
"C c gray78",
"Z c LightGray",
"A c gray84",
"S c #D7D7D7",
"D c #D8D8D8",
"F c gray85",
"G c #DADADA",
"H c gainsboro",
"J c #DDDDDD",
"K c gray87",
"L c #DFDFDF",
"P c gray88",
"I c #E4E4E4",
"U c #ECECEC",
"Y c #F3F3F3",
"T c #F4F4F4",
"R c #F8F8F8",
"E c gray98",
"W c #FBFBFB",
"Q c #FDFDFD",
"! c gray100",
"~ c None",
/* pixels */
"~~~~~~~~~~~~~~~~~~~~~~~~~~~~!!!!!!!!~~~~~~~~~~~~~~~~~~~~~~~~~~~~",
"~~~~~~~~~~~~~~~~~~~~~~~!!!!!!KvipnK!!!!!!~~~~~~~~~~~~~~~~~~~~~~~",
"~~~~~~~~~~~~~~~~~~~~!!!!6..............9!!!!~~~~~~~~~~~~~~~~~~~~",
"~~~~~~~~~~~~~~~~~~!!!+....................@!!!~~~~~~~~~~~~~~~~~~",
"~~~~~~~~~~~~~~~~!!H..........................I!!~~~~~~~~~~~~~~~~",
"~~~~~~~~~~~~~~!!E..............................!!!~~~~~~~~~~~~~~",
"~~~~~~~~~~~~~!!.................................+!!~~~~~~~~~~~~~",
"~~~~~~~~~~~~!R....................................!!~~~~~~~~~~~~",
"~~~~~~~~~~~!g......................................c!~~~~~~~~~~~",
"~~~~~~~~~~!..........................................!~~~~~~~~~~",
"~~~~~~~~~!..........!!!!!!!!!!!!!!!!!!!!!!!l..........!~~~~~~~~~",
"~~~~~~~~!...........!H....................!p...........!~~~~~~~~",
"~~~~~~~!e...........!K....................!p...........z!~~~~~~~",
"~~~~~~!U............!K....................!s............!!~~~~~~",
"~~~~~!!.............!K....................!s.............!!~~~~~",
"~~~~~!..............!K....................!p..............!~~~~~",
"~~~~!K..............!K....!.........:!....................R!~~~~",
"~~~~!...............!K....!.........9!.....................!~~~~",
"~~~!M...............!K....!.........3!.....................V!~~~",
"~~~!................!K....!.........1!......................!~~~",
"~~!Y................!K....!.........3!......................!!~~",
"~~!.................!K....!.........3!.......................!~~",
"~~!.................!K....!.........3!.......................!~~",
"~!A.................!K....!.........3!.......................E!~",
"~!..................!H....!.........3!.......................@!~",
"~!..................!K....!.........3!........................!~",
"~!..................!K....!.........1!........................!~",
"~!..................!K....!.........3!........................!~",
"!B..................!K....!.........1!........................Y!",
"!9..................!K....!.........3!........................s!",
"!=..................!K....!.........1!........................*!",
"!@..................!H....!.........3!....*...................@!",
"!@..................!!!!!!!!!!!!!!!!!!!!!!!s..................@!",
"!*........................!.........3!....!p..................@!",
"!:........................!.........3!....!s..................r!",
"!m........................!.........1!....!s..................Z!",
"!!........................!.........1!....!p..................!!",
"~!........................!.........1!....!p..................!~",
"~!........................!.........1!....!p..................!~",
"~!........................!.........1!....!p..................!~",
"~!c.......................!.........3!....!p.................N!~",
"~~!.......................!.........3!....!s.................!~~",
"~~!.......................!.........3!....!p.................!~~",
"~~!M......................!.........3!....!s................C!~~",
"~~~!......................!.........3!....!p................!~~~",
"~~~!0.....................!.........3!....!s...............r!~~~",
"~~~~!.....................!.........1!....!p...............!~~~~",
"~~~~!g....................!.........1!....!p..............v!~~~~",
"~~~~~!....................!.........3!....!s..............!~~~~~",
"~~~~~!!.............!K....................!j.............!!~~~~~",
"~~~~~~!s............!K....................!j............c!~~~~~~",
"~~~~~~~!............!K....................!j............!~~~~~~~",
"~~~~~~~~!...........!K....................!j...........!~~~~~~~~",
"~~~~~~~~~!..........!EAAHAAHAHAHAHAHAHHAHA!l..........!~~~~~~~~~",
"~~~~~~~~~!!.........!!!!!!!!!!!!!!!!!!!!!!!l.........!!~~~~~~~~~",
"~~~~~~~~~~~!........................................!~~~~~~~~~~~",
"~~~~~~~~~~~~!r....................................s!~~~~~~~~~~~~",
"~~~~~~~~~~~~~!!..................................!!~~~~~~~~~~~~~",
"~~~~~~~~~~~~~~!!w..............................y!!~~~~~~~~~~~~~~",
"~~~~~~~~~~~~~~~~!!=..........................1!!~~~~~~~~~~~~~~~~",
"~~~~~~~~~~~~~~~~~~!!u......................g!!~~~~~~~~~~~~~~~~~~",
"~~~~~~~~~~~~~~~~~~~~!!!9................q!!!~~~~~~~~~~~~~~~~~~~~",
"~~~~~~~~~~~~~~~~~~~~~~~!!!!A;.....+:K!!!!~~~~~~~~~~~~~~~~~~~~~~~",
"~~~~~~~~~~~~~~~~~~~~~~~~~~~!!!!!!!!!!~~~~~~~~~~~~~~~~~~~~~~~~~~~"
};
